<?xml version="1.0" encoding="iso-8859-1"?>
<!-- Generator: Adobe Illustrator 19.0.0, SVG Export Plug-In . SVG Version: 6.00 Build 0)  -->
<svg xmlns="http://www.w3.org/2000/svg" xmlns:xlink="http://www.w3.org/1999/xlink" version="1.1" id="Capa_1" x="0px" y="0px" viewBox="0 0 512 512" style="enable-background:new 0 0 512 512;" xml:space="preserve" width="512px" height="512px">
<g>
	<g>
		<g>
			<path d="M491.932,113.576h-93.851l11.001-11.002c7.721,5.584,17.194,8.888,27.43,8.888c25.873,0,46.922-21.05,46.922-46.923     c0-10.235-3.303-19.707-8.886-27.428l26.503-26.503L490.441,0l-26.502,26.502c-7.721-5.583-17.194-8.887-27.429-8.887     c-25.873,0-46.924,21.05-46.924,46.923c0,10.235,3.303,19.708,8.887,27.429l-21.609,21.609H120.12l20.595-20.595     c2.362,3.278,4.345,6.896,5.866,10.809l13.984-5.43c-9.456-24.354-32.439-40.09-58.554-40.09     c-34.632,0-62.807,28.175-62.807,62.807s28.175,62.807,62.807,62.807c6.658,0,13.232-1.048,19.544-3.113l-4.667-14.257     c-2.413,0.79-4.877,1.384-7.376,1.779v-26.227l155.699,190.031v115.526l-79.043,38.845V512h205.763v-25.532l-79.043-38.845     V332.098L491.932,113.576z M436.511,32.616c17.602,0,31.921,14.319,31.921,31.922c0,17.603-14.319,31.922-31.921,31.922     c-17.603,0-31.922-14.319-31.922-31.922C404.589,46.935,418.909,32.616,436.511,32.616z M63.343,93.016l20.56,20.56H54.799     C56.001,105.982,59.002,98.982,63.343,93.016z M54.799,128.577h29.104l-20.56,20.56     C59.002,143.171,56.001,136.171,54.799,128.577z M94.511,168.289c-7.594-1.202-14.594-4.202-20.56-8.544l20.56-20.56V168.289z      M94.511,102.969l-20.56-20.56c5.967-4.341,12.966-7.342,20.56-8.544V102.969z M109.512,73.852     c7.569,1.178,14.603,4.123,20.62,8.497l-20.62,20.62V73.852z M376.93,495.81v1.188H201.171v-1.188l73.285-36.015h16.424v-15.001     h-10.666V326.738L117.854,128.577h342.393l-162.36,198.161v130.227L376.93,495.81z" fill="#b29144"/>
			<path d="M380.695,180.547c-24.144,0-36.385,4.134-48.224,8.133c-11.182,3.776-21.743,7.344-43.421,7.344     c-21.679,0-32.241-3.566-43.422-7.344c-11.838-3.998-24.079-8.133-48.223-8.133h-15.843l102.44,125.025h10.095l102.441-125.025     H380.695z M289.05,288.063l-75.114-91.675c11.41,1.275,18.997,3.838,26.893,6.505c11.838,3.998,24.079,8.133,48.223,8.133     s36.385-4.134,48.222-8.133c7.897-2.666,15.482-5.229,26.894-6.505L289.05,288.063z" fill="#b29144"/>
			<path d="M289.051,216.921c-4.657,0-9.14-0.155-13.321-0.462l-1.096,14.962c4.545,0.332,9.397,0.501,14.417,0.501l1.158-0.003     l-0.08-15.001L289.051,216.921z" fill="#b29144"/>
			<path d="M248.635,227.183c5.141,1.353,10.229,2.377,15.555,3.13l2.102-14.853c-4.741-0.671-9.268-1.582-13.837-2.784     L248.635,227.183z" fill="#b29144"/>
			<path d="M299.738,216.63l0.852,14.978c10.5-0.597,19.676-2.003,28.877-4.425l-3.82-14.507     C317.442,214.836,309.21,216.092,299.738,216.63z" fill="#b29144"/>
			<path d="M175.853,139.393c-2.447,9.897-6.805,19.072-12.953,27.268l12,9.003c7.363-9.815,12.584-20.807,15.516-32.67     L175.853,139.393z" fill="#b29144"/>
			
				<rect x="333.487" y="133.379" transform="matrix(0.7071 0.7071 -0.7071 0.7071 213.0486 -194.235)" width="15.001" height="53.355" fill="#b29144"/>
			<path d="M448.261,64.538c0,3.569-1.596,6.906-4.379,9.151l9.421,11.675c6.33-5.109,9.96-12.699,9.96-20.826     c0-14.75-12-26.751-26.75-26.751v15.001C442.989,52.789,448.261,58.061,448.261,64.538z" fill="#b29144"/>
			<path d="M102.012,197.137c-41.94,0-76.06-34.12-76.06-76.06s34.12-76.06,76.06-76.06c35.111,0,65.479,23.788,73.849,57.849     l14.567-3.58c-10.022-40.784-46.38-69.27-88.417-69.27c-50.212,0-91.062,40.85-91.062,91.062s40.85,91.062,91.062,91.062     c13.69,0,26.873-2.979,39.18-8.858l-6.465-13.536C124.454,194.65,113.447,197.137,102.012,197.137z" fill="#b29144"/>
		</g>
	</g>
</g>
<g>
</g>
<g>
</g>
<g>
</g>
<g>
</g>
<g>
</g>
<g>
</g>
<g>
</g>
<g>
</g>
<g>
</g>
<g>
</g>
<g>
</g>
<g>
</g>
<g>
</g>
<g>
</g>
<g>
</g>
</svg>
