<?xml version="1.0" encoding="iso-8859-1"?>
<!-- Generator: Adobe Illustrator 18.1.1, SVG Export Plug-In . SVG Version: 6.00 Build 0)  -->
<svg xmlns="http://www.w3.org/2000/svg" xmlns:xlink="http://www.w3.org/1999/xlink" version="1.1" id="Capa_1" x="0px" y="0px" viewBox="0 0 581.176 581.176" style="enable-background:new 0 0 581.176 581.176;" xml:space="preserve" width="512px" height="512px">
<g>
	<g>
		<path d="M290.588,0C130.353,0,0,130.353,0,290.588s130.353,290.588,290.588,290.588s290.588-130.353,290.588-290.588    S450.823,0,290.588,0z M48.431,290.588c0-58.045,20.583-111.392,54.776-153.14l155.949,155.949    c-31.166,25.112-60.006,64.414-42.62,118.633c0,0-51.071,23.078-105.387-21.334c0,0-18.113,73.277,50.223,73.277    c68.361,0,75.747-25.548,75.747-25.548s17.387,18.961,28.914,21.455c11.551,2.446,114.443,0.751,114.443,0.751    s18.985-26.274-40.319-30.439c0,0,14.626-23.489,12.616-43.225l29.81,29.81c7.943,17.266,17.387,35.306,25.063,42.232    l17.605,0.436l18.501,18.501c-41.772,34.217-95.119,54.8-153.164,54.8C157.063,532.745,48.431,424.114,48.431,290.588z     M477.969,443.728L137.448,103.207c41.748-34.193,95.095-54.776,153.14-54.776c133.525,0,242.157,108.632,242.157,242.157    C532.745,348.633,512.162,401.98,477.969,443.728z" fill="#b29144"/>
		<path d="M428.206,170.745c0,0-4.916-14.723-19.155-20.026c0,0,4.892-20.414-1.453-23.61c0,0-22.182,14.021-23.828,18.113    c0,0-1.695-23.925-5.788-28.018c0,0-28.042,18.113-26.347,43.637c0,0-21.528,32.376-30.802,65.213l89.404,89.404    c3.269-24.748,3.003-66.472-3.39-87.903c-7.41-24.676,0-4.092,0-4.092s46.906,11.527,55.962-17.29c0,0,11.527-4.916,9.057-15.668    C471.867,190.481,434.817,174.038,428.206,170.745z" fill="#b29144"/>
	</g>
</g>
<g>
</g>
<g>
</g>
<g>
</g>
<g>
</g>
<g>
</g>
<g>
</g>
<g>
</g>
<g>
</g>
<g>
</g>
<g>
</g>
<g>
</g>
<g>
</g>
<g>
</g>
<g>
</g>
<g>
</g>
</svg>
