<?xml version="1.0" encoding="iso-8859-1"?>
<!-- Generator: Adobe Illustrator 19.0.0, SVG Export Plug-In . SVG Version: 6.00 Build 0)  -->
<svg xmlns="http://www.w3.org/2000/svg" xmlns:xlink="http://www.w3.org/1999/xlink" version="1.1" id="Capa_1" x="0px" y="0px" viewBox="0 0 512 512" style="enable-background:new 0 0 512 512;" xml:space="preserve" width="512px" height="512px">
<g>
	<g>
		<g>
			<path d="M503.467,494.933H486.4c-4.713,0-8.533,3.82-8.533,8.533S481.687,512,486.4,512h17.067c4.713,0,8.533-3.82,8.533-8.533     S508.18,494.933,503.467,494.933z" fill="#b29144"/>
			<path d="M110.933,320.734l42.667,42.667l42.667-42.667c3.192-3.212,7.538-5.013,12.066-5.001h115.934v-25.6h-256v25.6h30.601     C103.396,315.721,107.741,317.522,110.933,320.734z" fill="#b29144"/>
			<path d="M349.867,273.067v-8.533c-0.052-42.394-34.406-76.748-76.8-76.8h-153.6c-42.394,0.052-76.748,34.406-76.8,76.8v8.533     H332.8H349.867z M128,230.4h-8.533c-4.713,0-8.533-3.82-8.533-8.533s3.82-8.533,8.533-8.533H128c4.713,0,8.533,3.82,8.533,8.533     S132.713,230.4,128,230.4z M179.2,247.467h-8.533c-4.713,0-8.533-3.82-8.533-8.533s3.82-8.533,8.533-8.533h8.533     c4.713,0,8.533,3.82,8.533,8.533S183.913,247.467,179.2,247.467z M230.4,230.4h-8.533c-4.713,0-8.533-3.82-8.533-8.533     s3.82-8.533,8.533-8.533h8.533c4.713,0,8.533,3.82,8.533,8.533S235.113,230.4,230.4,230.4z M281.6,247.467h-8.533     c-4.713,0-8.533-3.82-8.533-8.533s3.821-8.533,8.533-8.533h8.533c4.713,0,8.533,3.82,8.533,8.533S286.313,247.467,281.6,247.467z     " fill="#b29144"/>
			<path d="M213.333,414.601l34.133,34.133l34.133-34.133c3.192-3.212,7.538-5.013,12.066-5h30.601V384h-256v25.6h133.001     C205.796,409.588,210.141,411.388,213.333,414.601z" fill="#b29144"/>
			<path d="M47.676,337.809c-3.509,3.51-5.321,8.37-4.966,13.321c1.206,9.216,9.174,16.035,18.466,15.804h71.825L98.867,332.8     H59.733C55.206,332.789,50.863,334.594,47.676,337.809z" fill="#b29144"/>
			<path d="M344.858,361.924c3.525-3.502,5.353-8.364,5.009-13.32c-1.208-9.233-9.201-16.057-18.509-15.804H208.333l-34.133,34.133     l158.601,0C337.328,366.944,341.67,365.14,344.858,361.924z" fill="#b29144"/>
			<path d="M460.8,102.4H213.333c-4.713,0-8.533,3.82-8.533,8.533V128h264.533v-17.067C469.333,106.221,465.513,102.4,460.8,102.4z" fill="#b29144"/>
			<path d="M443.733,76.8c0-4.713-3.82-8.533-8.533-8.533h-93.867h-102.4c-4.713,0-8.533,3.82-8.533,8.533v8.533h213.333V76.8z" fill="#b29144"/>
			<path d="M349.867,59.733V17.067C349.867,7.641,342.226,0,332.8,0h-42.667c-4.713,0-8.533,3.82-8.533,8.533     s3.82,8.533,8.533,8.533H332.8v42.667c0,4.713,3.821,8.533,8.533,8.533S349.867,64.446,349.867,59.733z" fill="#b29144"/>
			<path d="M452.267,494.933h-41.728l40.678-349.867H222.916l2.97,25.6h47.181c51.816,0.061,93.805,42.051,93.867,93.867v8.533     c0,9.426-7.641,17.067-17.067,17.067h-8.533v27.127c11.841,2.935,21.174,12.035,24.409,23.798     c3.234,11.763-0.134,24.355-8.81,32.932c-4.315,4.281-9.703,7.32-15.599,8.798V409.6h8.533c9.426,0,17.067,7.641,17.067,17.067     v25.6c0.002,16.069-6.492,31.457-18.005,42.667H307.2c23.552-0.028,42.638-19.114,42.667-42.667v-25.6h-56.201L253.5,466.833     c-3.332,3.331-8.734,3.331-12.066,0l-40.166-40.166H42.667v25.6c0.028,23.552,19.114,42.638,42.667,42.667h-76.8     c-4.713,0-8.533,3.82-8.533,8.533S3.82,512,8.533,512h443.733c4.713,0,8.533-3.82,8.533-8.533S456.979,494.933,452.267,494.933z" fill="#b29144"/>
		</g>
	</g>
</g>
<g>
</g>
<g>
</g>
<g>
</g>
<g>
</g>
<g>
</g>
<g>
</g>
<g>
</g>
<g>
</g>
<g>
</g>
<g>
</g>
<g>
</g>
<g>
</g>
<g>
</g>
<g>
</g>
<g>
</g>
</svg>
