<svg version="1.0" xmlns="http://www.w3.org/2000/svg" width="1024" height="1024" preserveAspectRatio="xMidYMid meet"><rect id="backgroundrect" width="100%" height="100%" x="0" y="0" fill="none" stroke="none"/>


<g class="currentLayer" style=""><title>Layer 1</title><g transform="translate(0, 478) scale(0.1, -0.1)" fill="#b29144" stroke="none" id="svg_1" class="" fill-opacity="1" opacity="1">
<path d="M4750.15966796875,4741.638392925262 c-708.36767578125,-70.61609649658203 -1253.4356689453125,-218.46852111816406 -1831.6048583984375,-492.10595703125 c-529.6206665039062,-253.776611328125 -975.384765625,-569.34228515625 -1401.2882080078125,-995.24560546875 c-787.8107299804688,-787.8107299804688 -1275.5030517578125,-1760.98876953125 -1447.6300048828125,-2882.019287109375 c-55.1688232421875,-359.7007141113281 -55.1688232421875,-1068.068603515625 -2.2067530155181885,-1421.1488037109375 c194.19427490234375,-1264.4693603515625 825.325439453125,-2405.36083984375 1763.195556640625,-3182.137451171875 c750.2958984375,-624.5110473632812 1608.7227783203125,-1008.4860229492188 2577.487548828125,-1158.54541015625 c348.66693115234375,-52.96207046508789 1063.655029296875,-52.96207046508789 1412.322021484375,0 c968.7645874023438,150.05918884277344 1827.19140625,534.0343017578125 2577.487548828125,1158.54541015625 c935.6632080078125,774.5703125 1569.00146484375,1919.875244140625 1763.195556640625,3182.137451171875 c52.96207046508789,348.66693115234375 52.96207046508789,1063.655029296875 0,1412.322021484375 c-150.05918884277344,968.7645874023438 -534.0343017578125,1827.19140625 -1158.54541015625,2577.487548828125 c-770.15673828125,929.0430297851562 -1924.2884521484375,1571.2078857421875 -3160.070068359375,1758.7821044921875 c-225.08880615234375,33.10129165649414 -911.388916015625,59.58232498168945 -1092.3426513671875,41.928306579589844 zm948.9038696289062,-121.37142181396484 c1480.7313232421875,-163.29971313476562 2864.365234375,-1046.0008544921875 3669.830322265625,-2341.364990234375 c714.9878540039062,-1149.7181396484375 926.8362426757812,-2617.209228515625 569.34228515625,-3928.0205078125 c-470.0383605957031,-1714.647216796875 -1802.917236328125,-3047.52587890625 -3517.564208984375,-3517.564208984375 c-995.24560546875,-271.4306335449219 -2133.929931640625,-214.0550537109375 -3096.07421875,156.67945861816406 c-1487.351318359375,571.549072265625 -2634.863037109375,1853.6724853515625 -3040.905517578125,3387.365478515625 c-353.08050537109375,1339.4989013671875 -139.02545166015625,2756.234375 593.6165161132812,3928.0205078125 c845.1863403320312,1352.7396240234375 2297.22998046875,2226.613525390625 3883.885498046875,2339.157958984375 c275.8440856933594,19.860774993896484 626.7178344726562,11.03376579284668 937.8699340820312,-24.27428436279297 z" id="svg_2" fill="#b29144" fill-opacity="1" opacity="1"/>
<path d="M4533.89794921875,4479.036342144012 c-937.8699340820312,-114.75113677978516 -1802.917236328125,-489.8992004394531 -2548.799560546875,-1109.9967041015625 c-884.907958984375,-732.6419677734375 -1480.7313232421875,-1798.5035400390625 -1674.9254150390625,-2985.736572265625 c-52.96207046508789,-319.9791564941406 -52.96207046508789,-1132.064208984375 0,-1452.04345703125 c390.5953063964844,-2398.740478515625 2405.36083984375,-4128.83447265625 4804.10107421875,-4128.83447265625 c2676.791259765625,0 4854.8564453125,2178.065185546875 4854.8564453125,4854.8564453125 c0,2464.943115234375 -1844.8455810546875,4534.876953125 -4296.54833984375,4821.75537109375 c-337.6331787109375,39.72154998779297 -809.87841796875,39.72154998779297 -1138.6845703125,0 zm1109.9967041015625,-242.7428436279297 c536.240966796875,-63.9958381652832 973.1781005859375,-189.78076171875 1454.250244140625,-421.4897766113281 c494.3126220703125,-238.3292999267578 887.11474609375,-514.1734619140625 1273.296630859375,-900.355224609375 c379.5615234375,-381.7682800292969 644.3718872070312,-752.502685546875 882.701171875,-1237.9884033203125 c867.25390625,-1776.43603515625 516.3801879882812,-3875.058349609375 -884.907958984375,-5274.1396484375 c-379.5615234375,-381.7682800292969 -750.2958984375,-646.5786743164062 -1235.78173828125,-884.907958984375 c-1282.1234130859375,-626.7178344726562 -2729.75341796875,-628.9246215820312 -4025.1171875,-6.620258808135986 c-472.24517822265625,227.29554748535156 -869.460693359375,509.7599182128906 -1251.2291259765625,889.3214721679688 c-1121.0303955078125,1121.0303955078125 -1582.24169921875,2705.479248046875 -1244.6083984375,4261.23974609375 c189.78076171875,862.8403930664062 688.5068969726562,1738.92138671875 1341.705810546875,2350.19189453125 c995.24560546875,933.4566040039062 2359.0185546875,1385.8408203125 3689.691162109375,1224.7479248046875 z" id="svg_3" fill="#b29144" fill-opacity="1" opacity="1"/>
<path d="M4584.65380859375,4081.8202776908875 c-337.6331787109375,-41.928306579589844 -549.4815063476562,-90.47687530517578 -880.494384765625,-200.81451416015625 c-946.6971435546875,-313.3589172363281 -1738.92138671875,-920.2158813476562 -2301.6435546875,-1760.98876953125 c-1198.2669677734375,-1794.090087890625 -922.4227905273438,-4212.69140625 650.9921264648438,-5697.8359375 c1644.031005859375,-1553.55419921875 4184.00341796875,-1630.79052734375 5918.51123046875,-183.16049194335938 c1824.984619140625,1524.8663330078125 2127.31005859375,4206.07080078125 690.713623046875,6114.9130859375 c-940.0767211914062,1244.6083984375 -2531.145751953125,1919.875244140625 -4078.079345703125,1727.8876953125 zm1180.6129150390625,-110.337646484375 c1363.7734375,-207.43478393554688 2548.799560546875,-1050.4144287109375 3208.619140625,-2286.1962890625 c668.6461181640625,-1253.4356689453125 668.6461181640625,-2804.782958984375 -2.2067530155181885,-4058.218994140625 c-419.2830505371094,-787.8107299804688 -1039.380615234375,-1407.908447265625 -1829.398193359375,-1829.398193359375 c-1251.2291259765625,-668.6461181640625 -2804.782958984375,-668.6461181640625 -4056.01171875,0 c-1240.1953125,662.02587890625 -2076.55419921875,1840.4317626953125 -2290.609619140625,3226.272705078125 c-50.75531768798828,333.2196960449219 -50.75531768798828,933.4566040039062 0,1266.6761474609375 c240.5360565185547,1560.17431640625 1268.883056640625,2848.91796875 2742.994140625,3435.914306640625 c258.1900939941406,101.51063537597656 734.8487548828125,222.8820343017578 1001.8658447265625,253.776611328125 c114.75113677978516,13.240517616271973 244.94960021972656,28.68778419494629 286.87786865234375,33.10129165649414 c145.6457061767578,17.654024124145508 717.1947021484375,-8.827012062072754 937.8699340820312,-41.928306579589844 z" id="svg_4" fill="#b29144" fill-opacity="1" opacity="1"/>
<path d="M2190.32568359375,555.428554058075 c-198.6077880859375,-66.20258331298828 -317.77239990234375,-167.71322631835938 -410.4560852050781,-346.460205078125 c-75.02959442138672,-147.85244750976562 -72.8228530883789,-410.4560852050781 6.620258808135986,-562.7219848632812 c125.784912109375,-238.3292999267578 319.9791564941406,-353.08050537109375 602.443603515625,-353.08050537109375 c147.85244750976562,0 196.40098571777344,8.827012062072754 284.671142578125,55.1688232421875 c59.58232498168945,30.89453887939453 112.54440307617188,66.20258331298828 116.95790100097656,79.44309997558594 c4.413506031036377,11.03376579284668 -28.68778419494629,63.9958381652832 -70.61609649658203,112.54440307617188 l-79.44309997558594,92.68363189697266 l-92.68363189697266,-41.928306579589844 c-50.75531768798828,-24.27428436279297 -121.37142181396484,-44.13506317138672 -158.88619995117188,-44.13506317138672 c-99.30389404296875,0 -240.5360565185547,75.02959442138672 -300.1183776855469,156.67945861816406 c-70.61609649658203,101.51063537597656 -83.85661315917969,308.9454345703125 -24.27428436279297,417.0763244628906 c88.27012634277344,161.0929718017578 284.671142578125,231.7090606689453 465.6249084472656,165.5064697265625 l99.30389404296875,-33.10129165649414 l83.85661315917969,81.64985656738281 c46.34181594848633,44.13506317138672 83.85661315917969,90.47687530517578 83.85661315917969,99.30389404296875 c0,8.827012062072754 -50.75531768798828,41.928306579589844 -112.54440307617188,72.8228530883789 c-136.81866455078125,70.61609649658203 -361.9075012207031,92.68363189697266 -494.3126220703125,48.54856872558594 z" id="svg_5" fill="#b29144" fill-opacity="1" opacity="1"/>
<path d="M2973.722412109375,-55.84240770339966 l0,-639.9583129882812 l143.43893432617188,0 l143.43893432617188,0 l0,284.671142578125 l0,284.671142578125 l77.23635864257812,68.40933227539062 c94.890380859375,83.85661315917969 191.9875030517578,90.47687530517578 240.5360565185547,19.860774993896484 c28.68778419494629,-39.72154998779297 35.308048248291016,-114.75113677978516 35.308048248291016,-353.08050537109375 l0,-304.5318908691406 l145.6457061767578,0 l145.6457061767578,0 l-8.827012062072754,348.66693115234375 c-6.620258808135986,297.9116516113281 -13.240517616271973,357.4939270019531 -50.75531768798828,421.4897766113281 c-97.09713745117188,165.5064697265625 -280.2575988769531,222.8820343017578 -450.1776123046875,136.81866455078125 c-50.75531768798828,-26.481035232543945 -99.30389404296875,-66.20258331298828 -108.13089752197266,-86.06336212158203 c-8.827012062072754,-19.860774993896484 -19.860774993896484,72.8228530883789 -26.481035232543945,205.22804260253906 l-11.03376579284668,242.7428436279297 l-136.81866455078125,6.620258808135986 l-139.02545166015625,6.620258808135986 l0,-642.1651000976562 z" id="svg_6" fill="#b29144" fill-opacity="1" opacity="1"/>
<path d="M8225.7939453125,462.7441973686218 l0,-121.37142181396484 l132.40516662597656,0 l132.40516662597656,0 l0,121.37142181396484 l0,121.37142181396484 l-132.40516662597656,0 l-132.40516662597656,0 l0,-121.37142181396484 z" id="svg_7" fill="#b29144" fill-opacity="1" opacity="1"/>
<path d="M6173.515625,-66.87622117996216 l0,-628.9246215820312 l386.1817321777344,0 l386.1817321777344,0 l0,132.40516662597656 l0,132.40516662597656 l-242.7428436279297,0 l-242.7428436279297,0 l0,496.5193786621094 l0,496.5193786621094 l-143.43893432617188,0 l-143.43893432617188,0 l0,-628.9246215820312 z" id="svg_8" fill="#b29144" fill-opacity="1" opacity="1"/>
<path d="M4317.63623046875,193.52056455612183 c-77.23635864257812,-41.928306579589844 -141.23219299316406,-94.890380859375 -185.3672637939453,-156.67945861816406 c-59.58232498168945,-88.27012634277344 -66.20258331298828,-112.54440307617188 -66.20258331298828,-269.2238464355469 c0,-156.67945861816406 6.620258808135986,-180.95375061035156 66.20258331298828,-267.01715087890625 c79.44309997558594,-112.54440307617188 233.91580200195312,-198.6077880859375 383.9750061035156,-214.0550537109375 c125.784912109375,-11.03376579284668 331.012939453125,41.928306579589844 383.9750061035156,101.51063537597656 c35.308048248291016,37.51479721069336 33.10129165649414,44.13506317138672 -35.308048248291016,112.54440307617188 c-66.20258331298828,61.78907775878906 -81.64985656738281,68.40933227539062 -134.61192321777344,46.34181594848633 c-163.29971313476562,-61.78907775878906 -388.3885498046875,8.827012062072754 -388.3885498046875,123.57815551757812 c0,4.413506031036377 150.05918884277344,8.827012062072754 333.2196960449219,8.827012062072754 l335.42645263671875,0 l-13.240517616271973,132.40516662597656 c-17.654024124145508,152.2659454345703 -50.75531768798828,227.29554748535156 -141.23219299316406,313.3589172363281 c-145.6457061767578,139.02545166015625 -346.460205078125,165.5064697265625 -538.4476928710938,68.40933227539062 zm372.9412841796875,-242.7428436279297 l59.58232498168945,-61.78907775878906 l-103.71739196777344,-6.620258808135986 c-59.58232498168945,-4.413506031036377 -152.2659454345703,-4.413506031036377 -209.6415252685547,0 l-105.92414093017578,6.620258808135986 l63.9958381652832,61.78907775878906 c46.34181594848633,44.13506317138672 86.06336212158203,59.58232498168945 150.05918884277344,59.58232498168945 c63.9958381652832,0 101.51063537597656,-15.447269439697266 145.6457061767578,-59.58232498168945 z" id="svg_9" fill="#b29144" fill-opacity="1" opacity="1"/>
<path d="M5158.4091796875,109.66405820846558 l0,-119.1646499633789 l200.81451416015625,-6.620258808135986 l198.6077880859375,-6.620258808135986 l-220.67529296875,-335.42645263671875 l-220.67529296875,-337.6331787109375 l428.110107421875,0 l430.3168029785156,0 l0,121.37142181396484 l0,121.37142181396484 l-198.6077880859375,0 c-108.13089752197266,0 -198.6077880859375,4.413506031036377 -198.6077880859375,11.03376579284668 c0,4.413506031036377 94.890380859375,154.47271728515625 209.6415252685547,331.012939453125 c114.75113677978516,176.54025268554688 209.6415252685547,326.59942626953125 209.6415252685547,331.012939453125 c0,6.620258808135986 -187.573974609375,11.03376579284668 -419.2830505371094,11.03376579284668 l-419.2830505371094,0 l0,-121.37142181396484 z" id="svg_10" fill="#b29144" fill-opacity="1" opacity="1"/>
<path d="M7100.35205078125,-71.28954744338989 c0,-167.71322631835938 11.03376579284668,-342.0467529296875 22.06753158569336,-386.1817321777344 c70.61609649658203,-247.15631103515625 381.7682800292969,-335.42645263671875 560.5151977539062,-158.88619995117188 l57.37556838989258,59.58232498168945 l0,-70.61609649658203 l0,-68.40933227539062 l143.43893432617188,0 l143.43893432617188,0 l0,463.4181213378906 l0,463.4181213378906 l-143.43893432617188,0 l-143.43893432617188,0 l0,-282.4643859863281 c0,-280.2575988769531 0,-282.4643859863281 -61.78907775878906,-342.0467529296875 c-86.06336212158203,-83.85661315917969 -185.3672637939453,-99.30389404296875 -244.94960021972656,-39.72154998779297 c-41.928306579589844,41.928306579589844 -46.34181594848633,70.61609649658203 -46.34181594848633,355.2872009277344 l0,308.9454345703125 l-143.43893432617188,0 l-143.43893432617188,0 l0,-302.3251647949219 z" id="svg_11" fill="#b29144" fill-opacity="1" opacity="1"/>
<path d="M8225.7939453125,-232.38269472122192 l0,-463.4181213378906 l132.40516662597656,0 l132.40516662597656,0 l0,463.4181213378906 l0,463.4181213378906 l-132.40516662597656,0 l-132.40516662597656,0 l0,-463.4181213378906 z" id="svg_12" fill="#b29144" fill-opacity="1" opacity="1"/>
<path d="M3088.47412109375,-1196.733555316925 l-4.413506031036377,-161.0929718017578 l105.92414093017578,4.413506031036377 l103.71739196777344,2.2067530155181885 l-92.68363189697266,8.827012062072754 l-92.68363189697266,8.827012062072754 l-8.827012062072754,147.85244750976562 l-6.620258808135986,147.85244750976562 l-4.413506031036377,-158.88619995117188 z" id="svg_13" fill="#b29144" fill-opacity="1" opacity="1"/>
<path d="M3393.005859375,-1093.016270160675 c-57.37556838989258,-57.37556838989258 -57.37556838989258,-178.74696350097656 -4.413506031036377,-227.29554748535156 c97.09713745117188,-88.27012634277344 269.2238464355469,-15.447269439697266 269.2238464355469,112.54440307617188 c0,132.40516662597656 -172.12672424316406,207.43478393554688 -264.8103332519531,114.75113677978516 zm187.573974609375,-33.10129165649414 c66.20258331298828,-63.9958381652832 68.40933227539062,-108.13089752197266 11.03376579284668,-165.5064697265625 c-52.96207046508789,-52.96207046508789 -125.784912109375,-57.37556838989258 -180.95375061035156,-6.620258808135986 c-83.85661315917969,75.02959442138672 -24.27428436279297,214.0550537109375 99.30389404296875,225.08880615234375 c8.827012062072754,2.2067530155181885 41.928306579589844,-22.06753158569336 70.61609649658203,-52.96207046508789 z" id="svg_14" fill="#b29144" fill-opacity="1" opacity="1"/>
<path d="M3724.01904296875,-1161.425449848175 c0,-150.05918884277344 28.68778419494629,-196.40098571777344 116.95790100097656,-196.40098571777344 c103.71739196777344,0 125.784912109375,33.10129165649414 121.37142181396484,187.573974609375 l-4.413506031036377,132.40516662597656 l-6.620258808135986,-125.784912109375 c-8.827012062072754,-139.02545166015625 -44.13506317138672,-183.16049194335938 -127.9916763305664,-163.29971313476562 c-50.75531768798828,13.240517616271973 -55.1688232421875,24.27428436279297 -55.1688232421875,145.6457061767578 c0,72.8228530883789 -8.827012062072754,132.40516662597656 -22.06753158569336,132.40516662597656 c-11.03376579284668,0 -22.06753158569336,-50.75531768798828 -22.06753158569336,-112.54440307617188 z" id="svg_15" fill="#b29144" fill-opacity="1" opacity="1"/>
<path d="M4059.446044921875,-1207.767246723175 l2.2067530155181885,-161.0929718017578 l13.240517616271973,127.9916763305664 l13.240517616271973,127.9916763305664 l97.09713745117188,-123.57815551757812 c52.96207046508789,-66.20258331298828 105.92414093017578,-121.37142181396484 114.75113677978516,-121.37142181396484 c11.03376579284668,0 19.860774993896484,70.61609649658203 19.860774993896484,156.67945861816406 c0,97.09713745117188 -8.827012062072754,150.05918884277344 -22.06753158569336,141.23219299316406 c-11.03376579284668,-6.620258808135986 -22.06753158569336,-63.9958381652832 -22.06753158569336,-125.784912109375 l0,-110.337646484375 l-101.51063537597656,123.57815551757812 c-57.37556838989258,68.40933227539062 -105.92414093017578,123.57815551757812 -110.337646484375,123.57815551757812 c-4.413506031036377,0 -6.620258808135986,-72.8228530883789 -4.413506031036377,-158.88619995117188 z" id="svg_16" fill="#b29144" fill-opacity="1" opacity="1"/>
<path d="M4434.59375,-1099.6366314888 c-57.37556838989258,-61.78907775878906 -61.78907775878906,-141.23219299316406 -13.240517616271973,-209.6415252685547 c28.68778419494629,-41.928306579589844 52.96207046508789,-48.54856872558594 125.784912109375,-44.13506317138672 c77.23635864257812,4.413506031036377 94.890380859375,15.447269439697266 99.30389404296875,57.37556838989258 c6.620258808135986,41.928306579589844 -2.2067530155181885,48.54856872558594 -55.1688232421875,46.34181594848633 c-50.75531768798828,-4.413506031036377 -52.96207046508789,-4.413506031036377 -11.03376579284668,-13.240517616271973 c63.9958381652832,-13.240517616271973 61.78907775878906,-46.34181594848633 -6.620258808135986,-63.9958381652832 c-72.8228530883789,-17.654024124145508 -116.95790100097656,0 -145.6457061767578,66.20258331298828 c-30.89453887939453,68.40933227539062 -15.447269439697266,110.337646484375 55.1688232421875,156.67945861816406 c44.13506317138672,28.68778419494629 63.9958381652832,30.89453887939453 101.51063537597656,11.03376579284668 c55.1688232421875,-28.68778419494629 92.68363189697266,-8.827012062072754 44.13506317138672,22.06753158569336 c-57.37556838989258,37.51479721069336 -145.6457061767578,24.27428436279297 -194.19427490234375,-28.68778419494629 z" id="svg_17" fill="#b29144" fill-opacity="1" opacity="1"/>
<path d="M4717.05908203125,-1203.3537945747375 l0,-154.47271728515625 l116.95790100097656,4.413506031036377 c110.337646484375,2.2067530155181885 110.337646484375,4.413506031036377 22.06753158569336,11.03376579284668 c-83.85661315917969,8.827012062072754 -94.890380859375,15.447269439697266 -94.890380859375,61.78907775878906 c0,39.72154998779297 13.240517616271973,55.1688232421875 61.78907775878906,61.78907775878906 l59.58232498168945,8.827012062072754 l-59.58232498168945,4.413506031036377 c-52.96207046508789,2.2067530155181885 -61.78907775878906,11.03376579284668 -61.78907775878906,66.20258331298828 c0,61.78907775878906 6.620258808135986,66.20258331298828 94.890380859375,75.02959442138672 c88.27012634277344,6.620258808135986 88.27012634277344,8.827012062072754 -22.06753158569336,11.03376579284668 l-116.95790100097656,4.413506031036377 l0,-154.47271728515625 z" id="svg_18" fill="#b29144" fill-opacity="1" opacity="1"/>
<path d="M5471.76953125,-1086.3960309028625 c-70.61609649658203,-59.58232498168945 -81.64985656738281,-141.23219299316406 -26.481035232543945,-211.84828186035156 c50.75531768798828,-63.9958381652832 156.67945861816406,-81.64985656738281 220.67529296875,-35.308048248291016 c24.27428436279297,15.447269439697266 8.827012062072754,17.654024124145508 -50.75531768798828,6.620258808135986 c-63.9958381652832,-11.03376579284668 -92.68363189697266,-4.413506031036377 -125.784912109375,24.27428436279297 c-105.92414093017578,94.890380859375 -2.2067530155181885,269.2238464355469 123.57815551757812,211.84828186035156 c75.02959442138672,-33.10129165649414 94.890380859375,-28.68778419494629 44.13506317138672,8.827012062072754 c-57.37556838989258,44.13506317138672 -130.1984405517578,41.928306579589844 -185.3672637939453,-4.413506031036377 z" id="svg_19" fill="#b29144" fill-opacity="1" opacity="1"/>
<path d="M5760.85400390625,-1203.3537945747375 c0,-90.47687530517578 4.413506031036377,-132.40516662597656 8.827012062072754,-92.68363189697266 c8.827012062072754,68.40933227539062 13.240517616271973,70.61609649658203 108.13089752197266,70.61609649658203 c92.68363189697266,0 97.09713745117188,-2.2067530155181885 97.09713745117188,-66.20258331298828 c0,-35.308048248291016 11.03376579284668,-66.20258331298828 22.06753158569336,-66.20258331298828 c13.240517616271973,0 22.06753158569336,66.20258331298828 22.06753158569336,154.47271728515625 c0,88.27012634277344 -8.827012062072754,154.47271728515625 -22.06753158569336,154.47271728515625 c-11.03376579284668,0 -22.06753158569336,-35.308048248291016 -22.06753158569336,-79.44309997558594 l0,-77.23635864257812 l-92.68363189697266,6.620258808135986 c-88.27012634277344,6.620258808135986 -94.890380859375,11.03376579284668 -108.13089752197266,83.85661315917969 c-8.827012062072754,50.75531768798828 -13.240517616271973,19.860774993896484 -13.240517616271973,-88.27012634277344 z" id="svg_20" fill="#b29144" fill-opacity="1" opacity="1"/>
<path d="M6085.24560546875,-1201.1472516059875 c0,-90.47687530517578 8.827012062072754,-156.67945861816406 22.06753158569336,-156.67945861816406 c13.240517616271973,0 22.06753158569336,61.78907775878906 22.06753158569336,141.23219299316406 c0,79.44309997558594 -8.827012062072754,150.05918884277344 -22.06753158569336,156.67945861816406 c-13.240517616271973,8.827012062072754 -22.06753158569336,-44.13506317138672 -22.06753158569336,-141.23219299316406 z" id="svg_21" fill="#b29144" fill-opacity="1" opacity="1"/>
<path d="M6237.5126953125,-1088.6025738716125 c-61.78907775878906,-50.75531768798828 -66.20258331298828,-161.0929718017578 -8.827012062072754,-225.08880615234375 c44.13506317138672,-48.54856872558594 154.47271728515625,-59.58232498168945 209.6415252685547,-19.860774993896484 c24.27428436279297,15.447269439697266 8.827012062072754,17.654024124145508 -50.75531768798828,6.620258808135986 c-97.09713745117188,-15.447269439697266 -169.91998291015625,30.89453887939453 -169.91998291015625,112.54440307617188 c0,103.71739196777344 94.890380859375,154.47271728515625 209.6415252685547,112.54440307617188 c44.13506317138672,-17.654024124145508 44.13506317138672,-15.447269439697266 2.2067530155181885,17.654024124145508 c-57.37556838989258,46.34181594848633 -130.1984405517578,44.13506317138672 -191.9875030517578,-4.413506031036377 z" id="svg_22" fill="#b29144" fill-opacity="1" opacity="1"/>
<path d="M6533.216796875,-1203.3537945747375 c0,-90.47687530517578 4.413506031036377,-132.40516662597656 8.827012062072754,-92.68363189697266 c8.827012062072754,68.40933227539062 13.240517616271973,70.61609649658203 108.13089752197266,70.61609649658203 c92.68363189697266,0 97.09713745117188,-2.2067530155181885 97.09713745117188,-66.20258331298828 c0,-35.308048248291016 11.03376579284668,-66.20258331298828 22.06753158569336,-66.20258331298828 c13.240517616271973,0 22.06753158569336,66.20258331298828 22.06753158569336,154.47271728515625 c0,88.27012634277344 -8.827012062072754,154.47271728515625 -22.06753158569336,154.47271728515625 c-11.03376579284668,0 -22.06753158569336,-35.308048248291016 -22.06753158569336,-79.44309997558594 l0,-77.23635864257812 l-92.68363189697266,6.620258808135986 c-88.27012634277344,6.620258808135986 -94.890380859375,11.03376579284668 -108.13089752197266,83.85661315917969 c-8.827012062072754,50.75531768798828 -13.240517616271973,19.860774993896484 -13.240517616271973,-88.27012634277344 z" id="svg_23" fill="#b29144" fill-opacity="1" opacity="1"/>
<path d="M6928.22607421875,-1192.3203473091125 c-75.02959442138672,-154.47271728515625 -86.06336212158203,-189.78076171875 -44.13506317138672,-147.85244750976562 c15.447269439697266,15.447269439697266 66.20258331298828,26.481035232543945 116.95790100097656,26.481035232543945 c50.75531768798828,0 101.51063537597656,-11.03376579284668 116.95790100097656,-26.481035232543945 c15.447269439697266,-15.447269439697266 26.481035232543945,-19.860774993896484 26.481035232543945,-13.240517616271973 c0,13.240517616271973 -134.61192321777344,304.5318908691406 -141.23219299316406,304.5318908691406 c-2.2067530155181885,0 -35.308048248291016,-63.9958381652832 -75.02959442138672,-143.43893432617188 zm114.75113677978516,-4.413506031036377 l37.51479721069336,-72.8228530883789 l-79.44309997558594,0 l-77.23635864257812,0 l37.51479721069336,77.23635864257812 c19.860774993896484,41.928306579589844 37.51479721069336,75.02959442138672 41.928306579589844,70.61609649658203 c2.2067530155181885,-2.2067530155181885 19.860774993896484,-37.51479721069336 39.72154998779297,-75.02959442138672 z" id="svg_24" fill="#b29144" fill-opacity="1" opacity="1"/>
<path d="M5142.96240234375,-1262.9360699653625 c19.860774993896484,-4.413506031036377 55.1688232421875,-4.413506031036377 77.23635864257812,0 c19.860774993896484,6.620258808135986 2.2067530155181885,11.03376579284668 -39.72154998779297,11.03376579284668 c-41.928306579589844,0 -59.58232498168945,-4.413506031036377 -37.51479721069336,-11.03376579284668 z" id="svg_25" fill="#b29144" fill-opacity="1" opacity="1"/>
</g></g></svg>