<?xml version="1.0" encoding="UTF-8"?>
<!-- Generator: Adobe Illustrator 18.1.1, SVG Export Plug-In . SVG Version: 6.00 Build 0)  -->
<svg version="1.0" id="Calque_1" xmlns="http://www.w3.org/2000/svg" xmlns:xlink="http://www.w3.org/1999/xlink" x="0px" y="0px" viewBox="0 0 220 77" enable-background="new 0 0 220 77" xml:space="preserve">
<g>
	<polygon fill="#B4975A" points="1.2237753,49.2004547 0,49.2004547 0,59.4701843 6.4139414,59.4701843 6.4139414,58.3946838    1.2237753,58.3946838  "/>
	<polygon fill="#B4975A" points="18.8636417,54.8097572 12.6552925,54.8097572 12.6552925,49.2004547 11.4299288,49.2004547    11.4299288,59.4701843 12.6552925,59.4701843 12.6552925,55.8859329 18.8636417,55.8859329 18.8636417,59.4701843    20.0890675,59.4701843 20.0890675,49.2004547 18.8636417,49.2004547  "/>
	<path fill="#B4975A" d="M26.518837,48.8479729c-2.8863583,0-5.0441608,2.3530617-5.0441608,5.4913559   c0,3.1335831,2.1578026,5.4820595,5.0441608,5.4820595c2.8853817,0,5.0419006-2.3484764,5.0419006-5.4820595   C31.5607376,51.2010345,29.4042187,48.8479729,26.518837,48.8479729z M26.518837,58.7446594   c-2.244524,0-3.8197136-1.813076-3.8197136-4.4053307c0-2.6022263,1.5751896-4.4073524,3.8197136-4.4073524   c2.2442818,0,3.8172092,1.8051262,3.8172092,4.4073524C30.3360462,56.9315834,28.7631187,58.7446594,26.518837,58.7446594z"/>
	<polygon fill="#B4975A" points="31.8248787,50.2805481 35.7168312,50.2805481 35.7168312,59.4701843 36.9422569,59.4701843    36.9422569,50.2805481 40.833168,50.2805481 40.833168,49.2004547 31.8248787,49.2004547  "/>
	<polygon fill="#B4975A" points="51.7243042,49.2004547 50.4988785,49.2004547 50.4988785,59.4701843 56.9137383,59.4701843    56.9137383,58.3946838 51.7243042,58.3946838  "/>
	<path fill="#B4975A" d="M66.2888412,49.2004547h-3.0458679v10.2697296h3.0458679   c3.5116959,0,5.7866516-2.0118332,5.7866516-5.1308556C72.0754929,51.21492,69.8005371,49.2004547,66.2888412,49.2004547z    M66.1422272,58.3946838h-1.6771927v-8.1141357h1.6771927c2.8423538,0,4.7062531,1.6036797,4.7062531,4.0587807   C70.8484802,56.7878227,68.984581,58.3946838,66.1422272,58.3946838z"/>
	<path fill="#B4975A" d="M95.4583817,59.209095c0.0880661-0.0424538,0.2168961-0.1179428,0.4081879-0.2041397l0.101265-1.5604897   c-0.7281876,0.6414719-1.0621796,0.8501968-1.8225174,1.0781326c-0.4941788,0.148407-0.9883575,0.2220612-1.4699478,0.2220612   c-2.4495087,0-4.1697235-1.8256798-4.1697235-4.4053307c0-2.6022263,1.6914291-4.4073524,4.1249237-4.4073524   c0.889534,0,1.8371277,0.2604179,2.5345764,0.7011795c0.117836,0.0741425,0.3074722,0.2034035,0.5411758,0.3809929   l0.1022491-1.2437935c-0.7155991-0.4512825-1.0363312-0.5845184-1.7486954-0.7381897   c-0.4643555-0.1232643-0.9648285-0.1841927-1.4716568-0.1841927c-3.1050949,0-5.3070221,2.2967186-5.3070221,5.5158844   c0,3.2556267,2.1704559,5.457531,5.3941727,5.457531C93.6630554,59.8213882,94.5408554,59.6311951,95.4583817,59.209095z"/>
	<path fill="#B4975A" d="M107.0479431,54.3393288c0-3.1382942-2.1582336-5.4913559-5.0422668-5.4913559   c-2.8872757,0-5.044838,2.3530617-5.044838,5.4913559c0,3.1335831,2.1575623,5.4820595,5.044838,5.4820595   C104.8897095,59.8213882,107.0479431,57.4729118,107.0479431,54.3393288z M102.0056763,58.7446594   c-2.2474594,0-3.8194122-1.813076-3.8194122-4.4053307c0-2.6022263,1.5719528-4.4073524,3.8194122-4.4073524   c2.2429352,0,3.8182449,1.8051262,3.8182449,4.4073524C105.8239212,56.9315834,104.2486115,58.7446594,102.0056763,58.7446594z"/>
	<polygon fill="#B4975A" points="108.4355087,49.2004547 108.4355087,59.4701843 114.8460236,59.4701843 114.8460236,58.3946838    109.6592178,58.3946838 109.6592178,49.2004547  "/>
	<polygon fill="#B4975A" points="117.7641678,49.2004547 116.5388641,49.2004547 116.5388641,59.4701843 122.9530487,59.4701843    122.9530487,58.3946838 117.7641678,58.3946838  "/>
	<polygon fill="#B4975A" points="130.6641693,58.3946838 125.8242493,58.3946838 125.8242493,55.9852791 129.9942169,55.9852791    129.9942169,54.9031715 125.8242493,54.9031715 125.8242493,50.2805481 130.6045685,50.2805481 130.6045685,49.2004547    124.6021271,49.2004547 124.6021271,59.4701843 130.6641693,59.4701843  "/>
	<polygon fill="#B4975A" points="189.6765442,55.9852791 193.8438873,55.9852791 193.8438873,54.9031715 189.6765442,54.9031715    189.6765442,50.2805481 194.4555817,50.2805481 194.4555817,49.2004547 188.4511871,49.2004547 188.4511871,59.4701843    194.5151672,59.4701843 194.5151672,58.3946838 189.6765442,58.3946838  "/>
	<polygon fill="#B4975A" points="43.8950539,55.9852791 48.0653839,55.9852791 48.0653839,54.9031715 43.8950539,54.9031715    43.8950539,50.2805481 48.6767845,50.2805481 48.6767845,49.2004547 42.6706047,49.2004547 42.6706047,59.4701843    48.7346611,59.4701843 48.7346611,58.3946838 43.8950539,58.3946838  "/>
	<path fill="#B4975A" d="M136.8461151,58.7446594c-2.4521332,0-4.1720428-1.8256798-4.1720428-4.4053307   c0-2.6022263,1.6927032-4.4073524,4.1249237-4.4073524c0.892395,0,1.8391418,0.2604179,2.5368958,0.7011795   c0.1177673,0.0741425,0.3091278,0.2034035,0.5402069,0.3809929l0.1019287-1.2437935   c-0.7156525-0.4512825-1.036026-0.5845184-1.7496643-0.7381897c-0.4661255-0.1232643-0.9599457-0.1841927-1.4730072-0.1841927   c-3.1021576,0-5.302063,2.2967186-5.302063,5.5158844c0,3.2556267,2.1701355,5.457531,5.3928223,5.457531   c0.9883575,0,1.8608398-0.1901932,2.781723-0.6122932c0.0859985-0.0424538,0.2178192-0.1179428,0.4077606-0.2041397   l0.1006622-1.5604897c-0.7262421,0.6414719-1.0639038,0.8501968-1.8185577,1.0781326   C137.8237762,58.6710052,137.324707,58.7446594,136.8461151,58.7446594z"/>
	<polygon fill="#B4975A" points="141.3053436,50.2805481 145.1979675,50.2805481 145.1979675,59.4701843 146.4233856,59.4701843    146.4233856,50.2805481 150.3139954,50.2805481 150.3139954,49.2004547 141.3053436,49.2004547  "/>
	<rect x="151.9492035" y="49.2004623" fill="#B4975A" width="1.2253642" height="10.2697296"/>
	<path fill="#B4975A" d="M159.6715546,48.8479729c-2.8823853,0-5.0398712,2.3530617-5.0398712,5.4913559   c0,3.1335831,2.157486,5.4820595,5.0398712,5.4820595c2.8883209,0,5.0458221-2.3484764,5.0458221-5.4820595   C164.7173767,51.2010345,162.5598755,48.8479729,159.6715546,48.8479729z M159.6715546,58.7446594   c-2.2422638,0-3.8191528-1.813076-3.8191528-4.4053307c0-2.6022263,1.576889-4.4073524,3.8191528-4.4073524   c2.2468567,0,3.8204498,1.8051262,3.8204498,4.4073524C163.4920044,56.9315834,161.9184113,58.7446594,159.6715546,58.7446594z"/>
	<polygon fill="#B4975A" points="174.3384094,51.4375954 167.3846283,49.1858368 165.8626709,49.1858368 165.8626709,59.4489594    167.0344391,59.4489594 167.0344391,50.2971268 174.3384094,52.6660919 174.3384094,59.4489594 175.5068054,59.4489594    175.5068054,49.1858368 174.3384094,49.1858368  "/>
	<polygon fill="#B4975A" points="185.6098633,51.4375954 178.6593323,49.1858368 177.1387177,49.1858368 177.1387177,59.4489594    178.3057709,59.4489594 178.3057709,50.2971268 185.6098633,52.6660919 185.6098633,59.4489594 186.7815704,59.4489594    186.7815704,49.1858368 185.6098633,49.1858368  "/>
	<path fill="#B4975A" d="M216.8183289,59.2514877c-1.3570709-0.5745468-2.7366791-1.4465218-3.9793396-2.5319366   l-0.0806732-0.0806274c1.8826599-0.4022179,3.0444641-1.7508011,3.0444641-3.6692848   c0-2.3053474-1.6787872-3.7943268-4.2765503-3.7943268h-5.1180573v0.0251427v7.5661392v2.7035904h1.223465v-2.7035904h3.2618561   c0.5439301,0.2029762,1.0293732,0.5800552,1.4562683,0.9236679c0.152298,0.1252861,0.2978668,0.2419472,0.4441833,0.3472862   c0.8361206,0.6215897,1.9655914,1.4068222,3.2425385,2.0005188c1.0625458,0.4883499,2.3289795,1.0158577,3.946228,1.0476074   c0.0219269-0.2040176,0.0172882-0.4114609,0.0139313-0.6089287C219.9940033,60.3236885,219.9920502,60.18256,220,60.0380669   C218.9645844,59.9658813,217.8961029,59.6987953,216.8183289,59.2514877z M211.2434998,55.7566719h-3.6118622v-5.4761238h3.6118622   c2.0317841,0,3.3623962,1.1683006,3.3623962,2.6890907C214.605896,54.6228714,213.2752838,55.7566719,211.2434998,55.7566719z"/>
	<polygon fill="#B4975A" points="6.5065312,51.5151024 7.4847445,51.5151024 9.3942957,49.4569588 7.8081675,49.4569588  "/>
	<path fill="#B4975A" d="M203.331192,56.7260971c0,1.2890015-1.0315094,1.9526176-2.93573,2.0054741   c-1.9066925-0.0528564-2.9383087-0.7164726-2.9383087-2.0054741v-7.5256424h-1.2227478v7.4091072   c0,2.2704163,1.4365845,3.1402512,4.0197449,3.1999588v0.0118675h0.0033112c0.0488281,0,0.0900726-0.0053253,0.1381226-0.0058136   c0.0479736,0.0004883,0.0892181,0.0058136,0.1379242,0.0058136h0.0033722v-0.0118065   c2.5849915-0.0597687,4.0209656-0.9295425,4.0209656-3.2000198v-7.4091072h-1.2266541V56.7260971z"/>
	<path fill="#B4975A" d="M81.8249359,56.6095619v-7.4091072h-1.2237167v7.5256424   c0,1.2887573-1.0315018,1.9522514-2.9386749,2.0053482c-1.9080811-0.0530968-2.9370193-0.7165909-2.9370193-2.0053482v-7.5256424   H73.501503v7.4091072c0,2.269558,1.4343796,3.1395798,4.0184021,3.199894v0.0119324h0.0045776   c0.0490799,0,0.0906372-0.0053253,0.138916-0.0058746c0.0482864,0.0005493,0.0897827,0.0058746,0.138855,0.0058746h0.0029984   v-0.0118675C80.3909225,59.7495689,81.8249359,58.879673,81.8249359,56.6095619z"/>
	<polygon fill="#B4975A" points="130.0083313,23.1400928 131.6070557,24.0318909 134.2502899,20.8291187 134.190094,20.7188835    134.1355133,20.6222878 134.0678711,20.498045 134.0548401,20.4762669 133.9754028,20.3262672 133.947464,20.2750034    131.8087921,16.3616943 131.5965424,15.9818029 131.3880157,15.5994034 131.1701355,15.1960211 131.3302612,14.9508963    131.4816437,14.7247353 131.6319275,14.4936199 133.4664917,11.7121544 129.3008575,12.8759918 129.2710419,14.7827902    129.2418823,16.9502506 129.231308,17.7239799 129.219574,18.4939804 129.1785736,21.5802135 129.8450928,22.8366699  "/>
	<path fill="#B4975A" d="M82.3659286,7.8080826l-2.8490219,2.0668287l0.4455948,0.6152897l0.9436874,1.942585   c0.2932281,0.5867205,0.6727524,1.3753777,1.0876694,2.2496786l1.5508652-4.3311291l-0.0021439-0.0049553l0.4337997-1.326561   l-0.0263977-0.0270386L82.3659286,7.8080826z"/>
	<polygon fill="#B4975A" points="85.676918,14.9723072 85.3097992,13.6398125 83.7288055,10.6936054 82.1843567,15.0033226    85.7461014,17.4528561  "/>
	<path fill="#B4975A" d="M81.9031601,15.1617632l-0.0666122-0.0431271l0.0188217-0.0544453   c-0.2072449-0.4379454-0.4052582-0.85289-0.5926361-1.2420797l-0.0036697,0.2636604l-0.2352905,1.6627741l0.6818008,2.8668642   l2.9755249,2.4963951C84.0803375,19.8125267,82.9116898,17.2959461,81.9031601,15.1617632z"/>
	<path fill="#B4975A" d="M85.7327805,17.7935352l-3.3551178-2.304368c0.9862213,2.0872622,2.0682678,4.4224005,2.6137848,5.6034288   L85.7327805,17.7935352z"/>
	<polygon fill="#B4975A" points="84.6649704,21.4764633 81.7759781,19.0549469 81.7864914,22.5573483  "/>
	<polygon fill="#B4975A" points="126.7370682,11.5211077 120.9460144,11.9727564 121.2488403,16.9745369 128.8930969,12.693387    128.8061981,12.3739967  "/>
	<polygon fill="#B4975A" points="120.2564545,22.4576969 125.5398788,22.3959103 121.029747,17.4370136 119.967865,17.706913  "/>
	<polygon fill="#B4975A" points="133.9400177,3.8633299 134.0088959,4.0205474 134.0367584,4.0856977 134.1503754,4.0717502    135.8738861,5.3996568 136.0445251,5.1504946 136.1388855,5.0107117 136.230072,4.8731313 138.0714722,2.1344879    132.2953339,0.0903542 133.8704681,3.7027478  "/>
	<polygon fill="#B4975A" points="136.4032745,5.2197437 136.3095245,5.361423 136.143219,5.6064868 137.6078491,6.7330694    137.8760223,6.6104155 138.0448303,6.5311947 138.2129517,6.4547272 141.0982819,5.1356292 138.3408051,2.3397882    136.4964142,5.0828362  "/>
	<polygon fill="#B4975A" points="138.3302917,6.7604141 138.161499,6.838717 137.7729187,7.0157552 137.9629364,8.0870361    138.0466614,8.5575876 138.1037445,8.8868275 138.1540375,8.8908644 141.3793488,9.4132919 141.2205048,5.4381356    138.5022125,6.683702  "/>
	<polygon fill="#B4975A" points="125.9662247,5.9770794 126.1163788,6.0854802 126.1295242,6.0988159 127.6077805,7.5909753    129.2945709,4.9464178 129.1580963,4.7678504 129.0550537,4.6349192 128.9520721,4.4997854 126.5837326,1.4175881    126.5415649,1.3626537 123.0728912,3.780133 125.8147736,5.8608489  "/>
	<polygon fill="#B4975A" points="129.2710419,4.3618989 129.3708954,4.4958091 129.4758301,4.63027 129.5800934,4.7660155    133.6880341,4.141305 133.642746,4.0375538 133.5738068,3.8798468 133.5061493,3.7170014 131.8851318,0 126.8518448,1.2082503    126.8660812,1.2287436  "/>
	<polygon fill="#B4975A" points="109.6721191,27.8352699 105.0872345,28.0200768 100.5849228,30.630743 98.1616364,33.8017654    104.6277084,32.4556274  "/>
	<polygon fill="#B4975A" points="100.3261032,25.5299225 105.2889175,27.6858215 105.4478149,27.6473427 115.9996414,22.5232143    116.0331345,22.5064526 117.7646561,22.4871826 117.9452515,22.4871826 118.127739,22.4819202 119.9089508,22.4632626    119.6296539,17.7935352 119.4794922,17.8290176 119.3087311,17.8721447 119.1381607,17.9193707 110.7935257,20.0343437    108.9896393,20.4681911 100.1231384,22.2859192 99.6986923,25.6563683  "/>
	<polygon fill="#B4975A" points="120.9590378,11.6460247 126.7532043,11.1949883 126.8003235,11.1881371 128.677063,11.9485312    127.4824371,7.9354472 126.2281036,6.6687756 125.9041901,6.3413715 125.7676544,6.2373142 125.6161499,6.1252432    125.4691086,6.0121322 125.2586899,5.85467 122.8538589,4.0294785 120.9050064,7.9931955 120.7957916,8.2187443    120.7269211,8.3532047 120.7355957,8.4242897  "/>
	<polygon fill="#B4975A" points="116.9380646,16.8266182 116.9175339,16.8732319 116.8641815,16.9018002 111.7458267,19.4572277    112.0723648,19.3761101 119.136879,17.5795479 119.3087311,17.5372772 119.4782104,17.4953728 119.6091766,17.4649086    119.7798157,17.4198837 119.9486771,17.3761444 120.912468,17.1313267 120.4147415,8.941823 120.4147415,8.9381523    119.5632172,10.9557972 119.410614,11.2974548 119.2827606,11.5888271 119.1089478,11.9703093 116.9410629,16.8213558  "/>
	<polygon fill="#B4975A" points="126.4850311,22.2085953 126.6545029,22.1597786 126.8189621,22.1091862 128.8359528,21.501667    128.8639526,19.3811264 128.8682251,19.1798019 128.8769684,18.4567242 128.9520721,13.0409174 121.3550644,17.2959461    125.9662247,22.365139  "/>
	<polygon fill="#B4975A" points="129.6303406,23.1553249 128.9178467,21.815979 126.8586884,22.4359798 126.6910477,22.4871826    126.5223083,22.5384464 126.2058563,22.6332054 116.1230927,22.8313484 106.8891602,27.3137589 106.2338257,27.6346188    106.24189,27.6324158 107.1929703,27.5771141 116.1715546,27.0575008  "/>
	<polygon fill="#B4975A" points="95.554451,26.4816685 95.6972198,26.454937 95.9885559,26.394619 99.3414688,25.7284317    99.7324829,22.6239071 99.7356033,22.593441 97.0209808,25.1193218  "/>
	<path fill="#B4975A" d="M137.9187469,9.1810131l-0.1166687-0.0192699l-0.0235901-0.1394768l-0.3555756-2.0118332   l-3.3700256-2.5975761l-4.4448547,0.6737108l-1.7854919,2.7966366l1.3752747,4.6543112l0.013031,0.0307093l5.0276489-1.4120827   l-2.5562744,3.8760548l-0.1191711,0.1877432l0.1662903,0.2893534l2.3385315,4.2824335l0.1222229,0.2205334l0.0528107,0.096899   l0.1277924-0.1046677l0.7267761-0.5963879l1.4739838-1.6906681l0.3307648-0.3807487l0.3320312-0.3799515l1.4876709-1.7021103   l0.3866119-2.5320578l3.9304047-0.3463678l-2.9230957-1.3184862l2.5979614-1.0909185L137.9187469,9.1810131z    M137.4272614,14.5227995l-0.7366943,0.6945715v-0.9569473l0.7366943-1.3903046V14.5227995z"/>
	<polygon fill="#B4975A" points="89.925415,37.6033707 92.7445526,32.2161331 89.7777023,35.5564232 89.7599792,35.5781403    86.7087326,37.330658 84.8502121,39.4160843 86.157959,39.4160843  "/>
	<polygon fill="#B4975A" points="95.6193542,36.5801735 97.3569946,34.3033943 97.5078278,34.1054955 97.6581039,33.9080238    100.3444366,30.3913078 104.6145706,27.9179153 104.7740784,27.8212605 104.7511597,27.8135529 100.2857056,25.8716412    99.6582947,25.9964981 99.4774551,26.0318565 99.2980194,26.0657463 95.5832977,26.810297 95.2891541,26.8642521    95.1882477,26.8829098 95.130249,26.8981419 95.1014023,27.0307674 95.0051498,27.4351902 94.9589462,27.6228123    94.9456177,27.6877174 94.7839737,28.4639549 94.5248413,29.5920677 94.3125839,29.9459 93.9917297,30.5592918    93.6689835,31.17342 91.7161636,34.9137268 91.03228,36.2161865 90.2065506,37.8046341 90.1823425,37.8412781    90.1454315,37.8629951 89.0555649,38.3860321 87.9676437,38.913475 86.9131622,39.4160843 89.8738937,39.4160843  "/>
	<path fill="#B4975A" d="M86.7769928,36.9237251l0.6708069-0.3951225c2.3469543-3.7512589,5.2967529-6.0354404,6.4004974-6.7256069   l0.2846146-0.1496925l0.2168961-0.9160213C92.336174,29.5330353,89.0906448,32.6028137,86.7769928,36.9237251z"/>
	<polygon fill="#B4975A" points="143.1152649,19.8159523 138.8379211,20.3682327 138.5567932,20.4043255 134.5519562,20.9167194    132.0085754,24.0029545 141.145462,21.8663254  "/>
	<polygon fill="#B4975A" points="136.7904968,27.5224857 137.3702393,25.9504948 136.469635,25.2780075 133.7779999,26.9776688    135.8490143,27.915102  "/>
	<polygon fill="#B4975A" points="142.4853516,25.0497665 143.319458,20.0215588 141.2546692,22.1710339 141.0367889,24.34865    139.5411224,25.8548183 138.2688141,25.5693798 137.6848602,25.93153 137.1138,27.4774609 139.3201904,27.8949146  "/>
	<polygon fill="#B4975A" points="140.5570984,15.8119221 136.5372925,18.2253036 135.3078308,19.649437 134.4395752,20.4393177    134.5339355,20.6058331 138.087616,20.144886 140.6966858,18.4302979 143.6049805,16.4998856 142.7429504,16.0902023  "/>
	<polygon fill="#B4975A" points="145.9155121,19.115509 146.1643829,20.9506111 146.7496185,21.0193081 148.7542114,20.754303    148.0423889,18.5977306 143.9139862,16.6436462 142.049118,17.8780785  "/>
	<polygon fill="#B4975A" points="147.1406403,22.3617134 149.9309845,23.8905163 149.7442169,21.624321 148.9752045,21.0173512    147.287674,21.2410641  "/>
	<path fill="#B4975A" d="M70.9569626,16.9456005c0,0,0.0242004,0.1288948,0.0406418,0.2401085   c0.0043411,0.0623989,0.066124-0.0152321,0.1049347-0.0770168l0.3987808-0.4521999c0,0,0.2618179-0.2040768,0.3639374-0.2947979   c0.1051788-0.0901089,0.461731-0.2634163,0.5023727-0.3385983l0.2212982-0.4895163l0.1743622-0.3438597l2.1424026-1.3372059   l2.6851044-2.1645851l1.1757965-1.6617336l0.5811462-0.3852139L82.1791,7.5854087l-0.3221436-0.5749755l-0.5411758-1.1222396   l0.9051819-0.1972256c0.224968-0.0853992,0.1759491-0.3419633,0.1759491-0.3419633l-0.1538849-0.2528329l0.0278702-0.1459613   l-0.1734467,0.0375609l0.1546173-0.2109284l-0.103035-0.2102556l0.103035-0.1565442l-0.6070557-0.4348872   c0,0-0.1395874-0.3764656-0.5594482-0.6755459c-0.3066177,0.147552-0.7444534,0.3367026-0.9067154,0.4063187l0.4719391,0.1947172   l-0.1111069,0.4795439l0.0955811,0.4215512l-0.5815125-0.0549955l-0.0579987,0.1906796l0.4064789,0.4075422l-0.3558731,0.925014   l0.1057892,0.7966704L79.1476517,7.881063L78.27034,8.5302429l-1.2994995,2.1146679l-0.9849319,0.9258699l-1.2723618,1.1775408   l-0.3881454,0.3715105l-1.8239899,1.5949936l-0.0837936,0.0701666c-0.0729065,0.0824013-0.6656036,0.5152693-0.813324,0.5957747   c-0.0788956,0.0590334-0.2786865,0.2456751-0.4149094,0.3755484c-0.1508331,0.1419239-0.2500839,0.3074608-0.2500839,0.3074608   c-0.03759,0.060257-0.05867,0.090416-0.0698547,0.1748962c-0.0086823,0.0869293,0.0124054,0.3109493,0.0124054,0.3109493   L70.9569626,16.9456005z M81.475296,4.0434875l0.2212372,0.1071773l-0.174057,0.1525068l-0.5275497,0.0149269L81.475296,4.0434875z   "/>
	<path fill="#B4975A" d="M78.4401169,6.0727558l0.3847809,0.3385377l0.4866028,0.0179853l0.4589157-0.1336045l0.3171921-0.9025631   l-0.4059296-0.42308l0.1911697-0.4988141l0.4146042,0.0509582l0.017662-0.199122l0.0486526-0.2795658l-0.7465897-0.2910051   l1.2490768-0.5895963c-0.1753387-0.0894368-0.3885727-0.1586857-0.6407928-0.1909857l-1.0817413,0.404422l-0.3088226,0.4631493   l-0.7332611,0.3379259L77.9489365,4.573072L77.861969,5.0961719l0.3779984,0.4950824L78.4401169,6.0727558z"/>
	<polygon fill="#B4975A" points="82.4769745,7.5285168 83.459404,8.2637682 83.1872559,7.0647554 82.1952362,7.0262771  "/>
	<polygon fill="#B4975A" points="84.3252258,8.9005299 84.0766678,9.6850882 85.8755417,10.7197266 86.945488,11.3875036    87.5977783,11.2617903 90.5270996,10.886487 91.5361786,10.9204388 91.9971695,10.4356947 116.9318314,16.0088425    117.0689774,15.7052956 95.9905701,11.1226807 117.4214935,14.9508963 117.5574112,14.6560984 92.9942703,10.4070654    118.1867142,13.2891006 118.3220291,12.9924679 96.7748642,10.6466236 118.5721741,12.2852335 118.7086411,11.9911079    92.0774155,10.1315374 92.0774155,9.7229548 91.2662277,9.7621679 90.2174301,10.2398157 87.2544861,10.4199734    86.4181824,9.8845158 84.8421402,8.6514292 84.0766678,7.445014 83.4544525,7.0992579 83.7498856,8.4038572  "/>
	<rect x="65.9522705" y="42.0214195" fill="#B4975A" width="84.3405075" height="0.4591118"/>
	<rect x="65.9522705" y="39.8011665" fill="#B4975A" width="84.3405075" height="1.8363862"/>
	<path fill="#B4975A" d="M81.2751999,26.5142136l3.0887756-1.2961578l0.4626465-3.3847027l0.0263977-0.1151905l-3.1527634,1.1828022   l-2.897728,3.0054226C79.6748962,25.9781456,80.5052109,26.1884003,81.2751999,26.5142136z"/>
	<path fill="#B4975A" d="M85.4907608,30.6854324l0.8265839-5.8956566l-4.6708069,1.8940125   C83.3551407,27.5150223,84.7257767,28.9394627,85.4907608,30.6854324z"/>
	<path fill="#B4975A" d="M98.143364,23.5643368l1.170845-1.1144104c-3.1779404,0.0133362-8.6201401,2.7774887-13.3828049,9.6370068   c0.0557938,0.2506294,0.1035919,0.5034637,0.1367722,0.7618637C88.6471863,28.5872211,93.1752319,25.1767635,98.143364,23.5643368z   "/>
	<path fill="#B4975A" d="M84.4824753,39.4160843l1.7818222-2.1221313l-0.0033646-0.0018349   c2.4644852-4.9095306,5.9899902-8.2246189,8.1617813-8.9449444l0.3087616-1.4030285   c-2.6252136,1.1159992-6.2813263,4.3171196-8.7582703,8.5768585c-0.3096085,1.4916077-1.0354767,2.8340149-2.0510941,3.8950806   H84.4824753z"/>
	<path fill="#B4975A" d="M94.8007202,26.6043224l0.152359-0.0441055l2.6062622-2.437973   c-5.1452408,1.9198284-9.070076,5.1154423-11.4337158,9.305872c0.0071487,0.1547089,0.0114288,0.3111916,0.0114288,0.4712219   c0,0.2531395-0.0114288,0.5100098-0.0349579,0.7575188C88.5360794,30.867794,92.099411,27.5709362,94.8007202,26.6043224z"/>
	<path fill="#B4975A" d="M74.3496017,39.4378624c-1.7606735-1.2145538-2.9131927-3.2471848-2.9131927-5.5385246   c0-3.7112503,3.0140305-6.7287865,6.7213593-6.7287865c3.7045059,0,6.7204285,3.0175362,6.7204285,6.7287865   c0,2.2913399-1.1574631,4.3239708-2.9138565,5.5385246h1.4863892c1.4591293-1.3959961,2.3701782-3.3639679,2.3701782-5.5385246   c0-4.231781-3.4404373-7.673315-7.6631393-7.673315c-4.227356,0-7.6640625,3.441534-7.6640625,7.673315   c0,2.1745567,0.9082413,4.1425285,2.3688354,5.5385246H74.3496017z"/>
	<path fill="#B4975A" d="M78.1577682,27.5134315c-3.5192719,0-6.3778839,2.8657036-6.3778839,6.3859062   c0,2.3658485,1.2943573,4.4370232,3.21241,5.5385246h6.3272171c1.917984-1.1015015,3.2139359-3.1726761,3.2139359-5.5385246   C84.5334473,30.3791351,81.6707993,27.5134315,78.1577682,27.5134315z M75.3652191,34.9771042l-0.6935425-1.2086182   l0.6935425-1.2097778V34.9771042z M77.7078323,38.997345l-0.4840927-0.8411446V33.984127h-0.6839447v2.9849281   l-0.4980316-0.8728333v-4.65168l0.4980316-0.8712406v2.9411297h0.6839447v-4.1320076l0.4840927-0.8408375V38.997345z    M80.2324524,33.3237495h-0.5023727v-1.6649132l-0.6795425-1.2209759v6.6572742l0.0064774-0.0135803l0.6730652-1.1735649   v-1.6921349h0.5023727v1.8803673l-1.6666183,2.901123v-0.8665924v-9.5891666l1.6666183,2.902956V33.3237495z    M80.8781967,34.9771042v-2.418396l0.6935959,1.2097778L80.8781967,34.9771042z"/>
	<polygon fill="#B4975A" points="85.4194412,72.2342911 84.2655792,69.8975601 83.1149597,72.2342911 80.5367432,72.6113052    82.4018021,74.430687 81.9618912,77 84.2655792,75.7871017 86.5720139,77 86.1314316,74.430687 87.9976501,72.6113052  "/>
	<polygon fill="#B4975A" points="96.6489105,72.2342911 95.495842,69.8975601 94.3424149,72.2342911 91.7641983,72.6113052    93.6299896,74.430687 93.1914215,77 95.495842,75.7871017 97.8006897,77 97.3620605,74.430687 99.2250443,72.6113052  "/>
	<polygon fill="#B4975A" points="107.8771591,72.2342911 106.7244568,69.8975601 105.5727386,72.2342911 102.9944611,72.6113052    104.85952,74.430687 104.4196091,77 106.7244568,75.7871017 109.0310135,77 108.5895767,74.430687 110.4550018,72.6113052  "/>
	<polygon fill="#B4975A" points="119.105835,72.2342911 117.9539871,69.8975601 116.80056,72.2342911 114.2222824,72.6113052    116.088562,74.430687 115.6462708,77 117.9539871,75.7871017 120.2600555,77 119.8202133,74.430687 121.6823959,72.6113052  "/>
	<polygon fill="#B4975A" points="130.3340759,72.2342911 129.1806488,69.8975601 128.0288086,72.2342911 125.450592,72.6113052    127.3183975,74.430687 126.8769608,77 129.1806488,75.7871017 131.4883118,77 131.046936,74.430687 132.9122925,72.6113052  "/>
</g>
</svg>