<svg xmlns="http://www.w3.org/2000/svg" viewBox="0 0 462 462" width="462" height="462">
	<style>
		tspan { white-space:pre }
		.shp0 { fill: #b29144 } 
	</style>
	<g id="SvgjsG1237">
	</g>
	<g id="SvgjsG1238">
		<g id="Layer">
			<path id="Layer" class="shp0" d="M10.76,231c0,-121.63 98.6,-220.24 220.24,-220.24c121.63,0 220.24,98.6 220.24,220.24c0,121.63 -98.6,220.24 -220.24,220.24c-121.63,0 -220.24,-98.6 -220.24,-220.24zM22.07,231c0,115.2 93.73,208.93 208.93,208.93c115.21,0 208.93,-93.73 208.93,-208.93c0,-115.2 -93.73,-208.93 -208.93,-208.93c-115.2,0 -208.93,93.73 -208.93,208.93z" />
			<path id="Layer" class="shp0" d="M28.86,231c0,-111.64 90.5,-202.14 202.14,-202.14c111.64,0 202.14,90.5 202.14,202.14c0,111.64 -90.5,202.14 -202.14,202.14c-111.64,0 -202.14,-90.5 -202.14,-202.14zM33.38,231c0,108.97 88.65,197.62 197.62,197.62c108.97,0 197.62,-88.65 197.62,-197.62c0,-108.97 -88.65,-197.62 -197.62,-197.62c-108.97,0 -197.62,88.65 -197.62,197.62z" />
			<path id="Layer" class="shp0" d="M0,231c0,-127.38 103.63,-231 231,-231c127.37,0 231,103.63 231,231c0,127.38 -103.63,231 -231,231c-127.37,0 -231,-103.63 -231,-231zM4.52,231c0,124.88 101.6,226.48 226.48,226.48c124.88,0 226.48,-101.6 226.48,-226.48c0,-124.88 -101.6,-226.48 -226.48,-226.48c-124.88,0 -226.48,101.6 -226.48,226.48z" />
		</g>
	</g>
	<g id="SvgjsG1239">
		<path id="Layer" class="shp0" d="M126.73,241.1c-5.17,4.59 -11.9,6.97 -19.69,6.97c-16.25,0 -30.03,-12.06 -30.03,-29.54c0,-17.48 13.78,-29.54 30.03,-29.54c7.71,0 14.36,2.46 19.36,6.81l-7.96,8.94c-2.87,-1.97 -6.73,-3.36 -10.58,-3.36c-10.09,0 -17.07,7.22 -17.07,17.15c0,9.93 6.97,17.15 17.07,17.15c4.02,0 8.12,-1.56 10.99,-3.86zM159.96,203.93c7.96,0 16.08,5.33 16.08,18.87v24.45h-12.96v-23.55c0,-6.48 -2.22,-8.53 -6.32,-8.53c-5.83,0 -9.19,5.66 -10.01,8.12v23.96h-12.96v-58.01h12.96v22.73c0.82,-2.05 5.17,-8.04 13.21,-8.04zM205.08,203.85c9.68,0 23.22,7.3 20.51,26.58h-29.78c1.48,4.43 5.33,6.73 10.5,6.73c5.25,0 6.89,-1.15 9.85,-2.38l7.14,6.89c-3.77,3.69 -8.86,6.4 -17.48,6.4c-10.58,0 -23.22,-7.3 -23.22,-21.99c0,-14.93 12.8,-22.24 22.48,-22.24zM205.08,214.92c-3.69,0 -7.47,2.13 -9.11,6.4h18.13c-1.31,-4.27 -5.33,-6.4 -9.03,-6.4zM272.03,204.59l-20.51,31.34h19.12v11.32h-39.79l20.51,-31.34h-18.62v-11.32zM292.22,235.11h21.82v12.14h-35.03v-57.43h13.21zM337.1,247.91c-7.96,0 -16.08,-5.33 -16.08,-18.87v-24.45h12.96v23.55c0,6.48 2.22,8.53 6.32,8.53c5.83,0 9.19,-5.66 10.01,-8.12v-23.96h12.96v42.66h-12.96v-7.38c-0.82,2.05 -5.17,8.04 -13.21,8.04zM384.6,189.24v10.91h-12.96v-10.91zM384.6,204.59v42.66h-12.96v-42.66z" />
	</g>
	<g id="SvgjsG1270">
		<path id="Layer" class="shp0" d="M148.45,264.3v2.34h-6.67v2.71h6.12v2.16h-6.12v3.1h6.81v2.34h-9.59v-12.63zM157.48,264.3l4.72,12.63h-2.88l-0.96,-2.81h-4.72l-0.99,2.81h-2.81l4.8,-12.63zM156.01,267.42l-1.65,4.64h3.27l-1.59,-4.64zM173.37,264.3v2.34h-3.79v10.3h-2.78v-10.3h-3.79v-2.34zM183.78,274.21v2.72h-2.78v-2.72zM197.83,264.3c1.79,0 3.2,0.55 4.23,1.66c1.03,1.11 1.54,2.64 1.54,4.58c0,2.02 -0.52,3.59 -1.55,4.71c-1.03,1.12 -2.42,1.68 -4.15,1.68h-5.49v-12.63zM197.65,274.6c1,0 1.78,-0.33 2.34,-0.99c0.55,-0.66 0.83,-1.6 0.83,-2.81c0,-1.39 -0.3,-2.43 -0.89,-3.12c-0.6,-0.69 -1.51,-1.04 -2.75,-1.04h-1.98v7.96zM213.05,264.3c1.06,0 1.94,0.33 2.65,0.98c0.7,0.65 1.05,1.49 1.05,2.5c0,1.58 -0.67,2.64 -2,3.17v0.04c0.45,0.13 0.8,0.35 1.05,0.65c0.25,0.3 0.45,0.65 0.58,1.05c0.13,0.4 0.21,1.04 0.25,1.93c0.05,1.16 0.21,1.93 0.5,2.32h-2.78c-0.15,-0.39 -0.27,-1.12 -0.35,-2.19c-0.09,-1.13 -0.3,-1.87 -0.62,-2.22c-0.32,-0.35 -0.84,-0.52 -1.56,-0.52h-2.8v4.94h-2.78v-12.63zM212.08,270.02c0.59,0 1.05,-0.13 1.39,-0.4c0.34,-0.27 0.5,-0.73 0.5,-1.41c0,-0.64 -0.17,-1.09 -0.5,-1.35c-0.33,-0.27 -0.8,-0.4 -1.42,-0.4h-3.04v3.56zM222.5,264.3v12.63h-2.78v-12.63zM228.41,264.3l5.27,8.48h0.04v-8.48h2.6v12.63h-2.78l-5.26,-8.46h-0.04v8.46h-2.6v-12.63zM242.25,264.3v5.24l4.94,-5.24h3.47l-4.94,4.99l5.41,7.64h-3.49l-3.8,-5.68l-1.59,1.61v4.07h-2.78v-12.63zM261.21,274.21v2.72h-2.78v-2.72zM275.51,264c1.47,0 2.71,0.42 3.72,1.25c1,0.83 1.58,1.93 1.73,3.3h-2.69c-0.09,-0.63 -0.41,-1.15 -0.94,-1.57c-0.53,-0.42 -1.14,-0.64 -1.82,-0.64c-1.09,0 -1.93,0.39 -2.53,1.17c-0.6,0.78 -0.9,1.83 -0.9,3.17c0,1.3 0.3,2.33 0.91,3.09c0.61,0.76 1.45,1.14 2.52,1.14c0.8,0 1.45,-0.24 1.95,-0.73c0.5,-0.49 0.8,-1.19 0.92,-2.1h2.69c-0.14,1.6 -0.72,2.87 -1.73,3.79c-1.01,0.92 -2.29,1.38 -3.83,1.38c-1.85,0 -3.35,-0.61 -4.49,-1.83c-1.14,-1.22 -1.72,-2.8 -1.72,-4.73c0,-1.96 0.57,-3.56 1.7,-4.8c1.13,-1.24 2.64,-1.87 4.51,-1.87zM286.45,264.3v4.85h5.11v-4.85h2.78v12.63h-2.78v-5.45h-5.11v5.45h-2.78v-12.63zM300.27,264.3v12.63h-2.78v-12.63zM306.2,264.3v10.3h6.16v2.34h-8.94v-12.63zM317.4,264.3v10.3h6.16v2.34h-8.94v-12.63z" />
	</g>
</svg>