<?xml version="1.0" encoding="iso-8859-1"?>
<!-- Generator: Adobe Illustrator 19.0.0, SVG Export Plug-In . SVG Version: 6.00 Build 0)  -->
<svg xmlns="http://www.w3.org/2000/svg" xmlns:xlink="http://www.w3.org/1999/xlink" version="1.1" id="Capa_1" x="0px" y="0px" viewBox="0 0 512 512" style="enable-background:new 0 0 512 512;" xml:space="preserve" width="512px" height="512px">
<g>
	<g>
		<path d="M357.605,228.015c-1.414-1.917-3.654-3.049-6.036-3.049h-33.1c-4.142,0-7.5,3.358-7.5,7.5s3.358,7.5,7.5,7.5h29.183    c6.946,10.611,10.598,22.859,10.598,35.65V432.33c0,12.658-6.913,24.268-18.04,30.3c-5.028,2.725-10.708,4.165-16.424,4.165    H188.214c-5.716,0-11.396-1.44-16.425-4.166c-11.127-6.032-18.04-17.642-18.04-30.299V275.616c0-12.789,3.653-25.037,10.6-35.65    h124.12c4.142,0,7.5-3.358,7.5-7.5s-3.358-7.5-7.5-7.5H160.433c-2.382,0-4.623,1.131-6.036,3.049    c-10.237,13.881-15.647,30.342-15.647,47.601V432.33c0,18.166,9.92,34.829,25.892,43.487c7.217,3.911,15.368,5.978,23.572,5.978    h135.573c8.204,0,16.355-2.067,23.571-5.977c15.971-8.658,25.893-25.321,25.893-43.488V275.616    C373.251,258.354,367.841,241.894,357.605,228.015z" fill="#b29144"/>
	</g>
</g>
<g>
	<g>
		<path d="M197.265,319.433c-4.142,0-7.5,3.358-7.5,7.5v10.63c0,4.142,3.358,7.5,7.5,7.5s7.5-3.358,7.5-7.5v-10.63    C204.765,322.791,201.407,319.433,197.265,319.433z" fill="#b29144"/>
	</g>
</g>
<g>
	<g>
		<path d="M314.734,319.433c-4.142,0-7.5,3.358-7.5,7.5v10.63c0,4.142,3.358,7.5,7.5,7.5s7.5-3.358,7.5-7.5v-10.63    C322.234,322.791,318.876,319.433,314.734,319.433z" fill="#b29144"/>
	</g>
</g>
<g>
	<g>
		<path d="M278.748,331.891c-3.118-2.726-7.857-2.408-10.582,0.71c-2.954,3.379-7.388,5.316-12.165,5.316    c-4.778,0-9.211-1.938-12.165-5.316c-2.726-3.119-7.465-3.437-10.583-0.711c-3.119,2.726-3.438,7.464-0.711,10.583    c5.802,6.638,14.352,10.445,23.458,10.445s17.656-3.807,23.458-10.444C282.184,339.355,281.866,334.617,278.748,331.891z" fill="#b29144"/>
	</g>
</g>
<g>
	<g>
		<path d="M355.876,184.832c5.727-5.326,9.32-12.918,9.32-21.338c0-16.072-13.076-29.148-29.148-29.148h-0.268    c-3.064-15.962-15.708-28.551-31.697-31.536l16.976-43.435c0.842-2.155,2.858-3.809,5.136-4.212l58.625-10.401    c8.688-1.542,14.503-9.865,12.962-18.554l-2.306-12.996c-0.747-4.209-3.088-7.875-6.592-10.324    c-3.504-2.449-7.752-3.386-11.961-2.639l-58.625,10.401c-17.718,3.144-32.793,15.508-39.344,32.269l-15.554,39.798    c-10.933-8.887-24.604-13.293-38.182-11.702c-2.124,0.249-4.041,1.393-5.268,3.144c-5.772,8.232-8.715,18.051-8.823,28.177    c-17.488,1.799-31.641,14.993-34.907,32.01h-6.309c-16.072,0-29.148,13.076-29.148,29.148c0,9.729,4.796,18.354,12.143,23.651    c-27.69,20.65-44.364,53.293-44.364,88.47v156.714c0,29.261,15.98,56.1,41.704,70.044c11.621,6.299,24.75,9.628,37.967,9.628    h135.572c13.218,0,26.347-3.33,37.967-9.628c25.724-13.944,41.704-40.783,41.704-70.042V275.616    C403.457,239.096,385.488,205.305,355.876,184.832z M292.924,48.38c4.661-11.925,15.388-20.723,27.994-22.959l58.625-10.401    c0.544-0.097,1.067,0.268,1.164,0.813l2.306,12.996c0.097,0.545-0.269,1.067-0.813,1.164l-58.625,10.401    c-7.424,1.316-13.741,6.498-16.487,13.521l-19.239,49.225c-2.309,0.53-4.577,1.289-6.753,2.22    c-0.176,0.075-0.355,0.144-0.529,0.222c-0.09-0.211-0.188-0.419-0.281-0.629c-1.539-3.491-3.405-6.834-5.572-9.974L292.924,48.38z     M273.264,134.229c3.173-9.955,13.079-17.103,23.515-17.103c11.018,0.001,20.375,7.245,23.558,17.221h-47.11    C273.239,134.308,273.251,134.268,273.264,134.229z M230.412,85.705c11.224-0.054,22.605,5.849,30.325,15.615    c3.091,3.91,5.54,8.383,7.164,13.097c0.013,0.039,0.023,0.08,0.037,0.119c-0.179,0.188-0.339,0.391-0.514,0.582    c-2.303,2.519-4.108,5.312-5.817,8.251c-3.329-5.77-6.821-11.451-10.235-17.172c-0.089-0.149-0.178-0.298-0.266-0.446    c-2.123-3.557-6.726-4.72-10.284-2.598c-3.557,2.123-4.72,6.727-2.597,10.284l12.477,20.911h-10.84    c-0.074-0.071-0.149-0.142-0.222-0.213c-4.124-3.987-7.466-8.802-9.776-14.051C224.813,108.581,224.99,95.627,230.412,85.705z     M213.002,117.226c0.516,1.962,1.137,3.911,1.867,5.84c0.017,0.046,0.033,0.093,0.051,0.139c1.489,3.887,3.379,7.64,5.629,11.143    h-28.885C194.63,125.049,202.962,118.124,213.002,117.226z M169.912,149.347h166.135c7.801,0,14.148,6.347,14.148,14.148    c0,7.635-6.511,14.148-14.148,14.148H169.912c-7.801,0-14.148-6.347-14.148-14.148    C155.764,155.694,162.111,149.347,169.912,149.347z M388.458,432.331c0,23.751-12.972,45.537-33.853,56.855    c-9.433,5.113-20.089,7.816-30.818,7.816H188.214c-10.729,0-21.386-2.703-30.819-7.816    c-20.881-11.318-33.852-33.104-33.852-56.855V275.616c0-34.416,18.463-66.036,48.309-82.973h164.196    c0.017,0,0.033-0.001,0.05-0.001c1.217-0.002,2.43-0.079,3.637-0.232c30.092,16.878,48.723,48.63,48.723,83.206V432.331z" fill="#b29144"/>
	</g>
</g>
<g>
</g>
<g>
</g>
<g>
</g>
<g>
</g>
<g>
</g>
<g>
</g>
<g>
</g>
<g>
</g>
<g>
</g>
<g>
</g>
<g>
</g>
<g>
</g>
<g>
</g>
<g>
</g>
<g>
</g>
</svg>
