<?xml version="1.0" encoding="iso-8859-1"?>
<!-- Generator: Adobe Illustrator 19.0.0, SVG Export Plug-In . SVG Version: 6.00 Build 0)  -->
<svg version="1.1" id="Capa_1" xmlns="http://www.w3.org/2000/svg" xmlns:xlink="http://www.w3.org/1999/xlink" x="0px" y="0px"
	 viewBox="0 0 512.008 512.008" style="enable-background:new 0 0 512.008 512.008;" xml:space="preserve">
<g>
	<g>
		<path d="M397.732,151.784l-33.504-55.776h3.776c8.832,0,16-7.168,16-16c0-8.832-7.168-16-16-16H262.628L203.332,4.68
			c-6.24-6.24-16.384-6.24-22.624,0s-6.24,16.384,0,22.624l36.672,36.704h-73.376c-8.832,0-16,7.168-16,16c0,8.832,7.168,16,16,16
			h3.744l-33.472,55.776c-1.504,2.496-2.272,5.344-2.272,8.224v288c0,3.168,0.928,6.24,2.688,8.864l32,48
			c2.976,4.48,7.968,7.136,13.312,7.136h192c5.344,0,10.336-2.656,13.312-7.136l32-48c1.76-2.624,2.688-5.696,2.688-8.864v-288
			C400.004,157.096,399.236,154.248,397.732,151.784z M185.06,96.008h141.888l38.4,64H146.66L185.06,96.008z M144.004,416.008v-224
			h151.552c7.84,12.992,23.328,49.28-5.728,104.576c-28.096,53.504-22.208,94.624-12.704,119.424H144.004z M343.46,480.008H168.58
			l-21.344-32h217.536L343.46,480.008z M368.004,416.008H312.42c-7.744-12.832-23.328-49.152,5.76-104.544
			c28.096-53.536,22.208-94.624,12.704-119.456h37.12V416.008z"/>
	</g>
</g>
<g>
	<g>
		<path d="M224.004,224.008c-26.464,0-48,21.536-48,48s21.536,48,48,48s48-21.536,48-48S250.468,224.008,224.004,224.008z
			 M224.004,288.008c-8.832,0-16-7.168-16-16c0-8.832,7.168-16,16-16c8.832,0,16,7.168,16,16
			C240.004,280.84,232.836,288.008,224.004,288.008z"/>
	</g>
</g>
<g>
	<g>
		<path d="M192.644,352.008h-0.32c-8.832,0-15.84,7.168-15.84,16c0,8.832,7.328,16,16.16,16c8.832,0,16-7.168,16-16
			C208.644,359.176,201.476,352.008,192.644,352.008z"/>
	</g>
</g>
<g>
</g>
<g>
</g>
<g>
</g>
<g>
</g>
<g>
</g>
<g>
</g>
<g>
</g>
<g>
</g>
<g>
</g>
<g>
</g>
<g>
</g>
<g>
</g>
<g>
</g>
<g>
</g>
<g>
</g>
</svg>
